<?xml version="1.0" standalone="no"?><!DOCTYPE svg PUBLIC "-//W3C//DTD SVG 1.1//EN" "http://www.w3.org/Graphics/SVG/1.1/DTD/svg11.dtd"><svg class="icon" width="16px" height="16.00px" viewBox="0 0 1024 1024" version="1.1" xmlns="http://www.w3.org/2000/svg"><path fill="#ffffff" d="M236.99023437 736.47265625H789.734375c33.22265625 0 60.1171875-26.89453125 60.1171875-60.1171875V233.38671875c0-63.6328125-51.59179688-115.22460938-115.22460938-115.22460938H292.09765625c-63.6328125 0-115.22460938 51.59179688-115.22460938 115.22460938v443.05664063c0 33.13476563 26.89453125 60.02929688 60.11718751 60.02929687z m556.171875-54.75585938h-56.6015625V570.18359375h56.6015625v111.53320313zM569.3046875 232.33203125h224.20898438v224.6484375H569.3046875V232.33203125z m-334.59960938 0h222.45117188v224.6484375H234.70507812V232.33203125z m1e-8 337.8515625h56.6015625v111.53320313h-56.6015625V570.18359375z m0 0M849.67578125 793.07421875H176.78515625v53.96484375h280.63476563v56.6015625h111.88476562v-56.6015625h280.37109375v-53.96484375z m0 0" /></svg>