<?xml version="1.0" standalone="no"?><!DOCTYPE svg PUBLIC "-//W3C//DTD SVG 1.1//EN" "http://www.w3.org/Graphics/SVG/1.1/DTD/svg11.dtd"><svg class="icon" width="16px" height="16.00px" viewBox="0 0 1024 1024" version="1.1" xmlns="http://www.w3.org/2000/svg"><path fill="#ffffff" d="M235.819319 397.061224c-56.23298 0-101.819045 45.584198-101.819045 101.814874s45.586066 101.814874 101.819045 101.814874 101.819045-45.584198 101.819045-101.814874S292.053322 397.061224 235.819319 397.061224zM235.819319 569.363476c-38.931233 0-70.490266-31.573089-70.490266-70.487378 0-38.946011 31.55801-70.487378 70.490266-70.487378s70.490266 31.541367 70.490266 70.487378C306.309585 537.790386 274.751575 569.363476 235.819319 569.363476zM799.741445 397.061224c-56.23298 0-101.819045 45.584198-101.819045 101.814874s45.586066 101.814874 101.819045 101.814874 101.819045-45.584198 101.819045-101.814874S855.974424 397.061224 799.741445 397.061224zM799.741445 569.363476c-38.932256 0-70.490266-31.573089-70.490266-70.487378 0-38.946011 31.55801-70.487378 70.490266-70.487378 38.931233 0 70.490266 31.541367 70.490266 70.487378C870.230687 537.790386 838.672678 569.363476 799.741445 569.363476zM517.780382 397.061224c-56.23298 0-101.819045 45.584198-101.819045 101.814874s45.586066 101.814874 101.819045 101.814874 101.819045-45.584198 101.819045-101.814874S574.013361 397.061224 517.780382 397.061224zM517.780382 569.363476c-38.932256 0-70.490266-31.573089-70.490266-70.487378 0-38.946011 31.55801-70.487378 70.490266-70.487378 38.931233 0 70.490266 31.541367 70.490266 70.487378C588.270648 537.790386 556.711615 569.363476 517.780382 569.363476z" /></svg>