<?xml version="1.0" standalone="no"?><!DOCTYPE svg PUBLIC "-//W3C//DTD SVG 1.1//EN" "http://www.w3.org/Graphics/SVG/1.1/DTD/svg11.dtd"><svg class="icon" width="16px" height="16.00px" viewBox="0 0 1024 1024" version="1.1" xmlns="http://www.w3.org/2000/svg"><path fill="#ffffff" d="M786.068006 789.334399l47.366797 168.918177-63.683415 0-15.646352-62.577221-482.253512 0-15.646352 62.577221-64.695464 0 47.355541-168.923294c-61.891605-7.643074-112.031563-59.812247-112.031563-123.764791L126.833687 226.983641c0-69.206198 58.154491-125.311007 127.360689-125.311007L382.577349 101.672634 382.577349 39.017642l260.870426 0 0 62.654992 127.360689 0c69.205175 0 125.308961 56.103786 125.308961 125.311007l0 438.58085C896.117424 729.545688 847.989287 781.730211 786.068006 789.334399L786.068006 789.334399zM766.708076 665.564491 766.708076 540.253484l-62.654992 0 0 125.311007L766.708076 665.564491 766.708076 665.564491zM734.337831 830.970682l-12.592806-40.095183L303.189254 790.875498l-12.593829 40.095183L734.337831 830.970682 734.337831 830.970682zM254.194376 665.564491l62.654992 0L316.849368 540.253484l-62.654992 0L254.194376 665.564491 254.194376 665.564491zM190.510962 226.983641l0 250.615874 256.771061 0L447.282023 226.983641 190.510962 226.983641 190.510962 226.983641zM574.641689 101.672634 446.258717 101.672634l0 62.656015L574.641689 164.328649 574.641689 101.672634 574.641689 101.672634zM832.441173 226.983641 574.641689 226.983641l0 250.615874 257.799484 0L832.441173 226.983641 832.441173 226.983641zM832.441173 226.983641" /></svg>