<?xml version="1.0" standalone="no"?><!DOCTYPE svg PUBLIC "-//W3C//DTD SVG 1.1//EN" "http://www.w3.org/Graphics/SVG/1.1/DTD/svg11.dtd"><svg class="icon" width="16px" height="16.00px" viewBox="0 0 1024 1024" version="1.1" xmlns="http://www.w3.org/2000/svg"><path fill="#ffffff" d="M343.25 343.25c0-93.20625 75.54375-168.75 168.75-168.75s168.75 75.54375 168.75 168.75c0 19.85625-4.05 38.587500000000006-10.35 56.25H793.25v-56.25C793.25 187.94374999999997 667.30625 62 512 62 356.63750000000005 62 230.75 187.8875 230.75 343.25v56.25h122.85000000000002C347.29999999999995 381.78125 343.25 363.05 343.25 343.25z m450 56.25H230.75c-62.15625 0-112.5 50.4-112.5 112.5v337.5c0 62.15625 50.34375 112.5 112.5 112.5h562.5c62.15625 0 112.5-50.4 112.5-112.5V512c0-62.10000000000001-50.34375-112.5-112.5-112.5zM568.25 721.3625V793.25c0 31.050000000000004-25.2 56.25-56.25 56.25s-56.25-25.2-56.25-56.25v-71.83125c-33.46874999999999-19.51875-56.25-55.40625-56.25-96.91875 0-62.15625 50.34375-112.5 112.5-112.5s112.5 50.34375 112.5 112.5c0 41.5125-22.78125 77.39999999999999-56.25 96.8625z" /></svg>