<?xml version="1.0" standalone="no"?><!DOCTYPE svg PUBLIC "-//W3C//DTD SVG 1.1//EN" "http://www.w3.org/Graphics/SVG/1.1/DTD/svg11.dtd"><svg class="icon" width="16px" height="16.00px" viewBox="0 0 1024 1024" version="1.1" xmlns="http://www.w3.org/2000/svg"><path fill="#ffffff" d="M768 397.824h-1.536v-61.952c0.512-5.632 0.512-11.264 0.512-17.408 0-67.584-26.624-131.072-74.24-179.2-48.128-47.616-111.616-74.24-179.712-74.24s-131.584 26.112-179.712 74.24c-48.128 48.128-74.24 111.616-74.24 179.2v78.848h1.536c-68.608 0-124.416 55.808-124.416 123.904V829.952c0 68.608 55.808 123.904 124.416 123.904h506.88c68.608 0 124.416-55.808 124.416-123.904v-308.736c0.512-67.584-55.296-123.392-123.904-123.392z m-451.584-78.848c0-108.032 88.064-196.096 196.608-196.096s196.608 88.064 196.608 196.096c0 4.608 0 9.216-0.512 14.336v65.024h-392.704v-79.36z m408.064 278.528l-239.616 232.448c-11.264 10.752-28.672 10.24-39.424-0.512l-116.224-119.808c-10.752-11.264-10.24-28.672 0.512-39.424 11.264-10.752 28.672-10.24 39.424 0.512l96.768 99.84 219.648-212.992c11.264-10.752 28.672-10.24 39.424 0.512 10.752 11.264 10.752 28.672-0.512 39.424z" /></svg>