<?xml version="1.0" standalone="no"?><!DOCTYPE svg PUBLIC "-//W3C//DTD SVG 1.1//EN" "http://www.w3.org/Graphics/SVG/1.1/DTD/svg11.dtd"><svg class="icon" width="16px" height="16.00px" viewBox="0 0 1024 1024" version="1.1" xmlns="http://www.w3.org/2000/svg"><path fill="#ffffff" d="M848.48 357.2c81.6-122.64 77.92-128 74.32-132.88l-3.76-4.64-5.36 1.36a285.36 285.36 0 0 1-96.48-5.92c-34.48-9.68-107.92-11.04-175.36-11.04-37.92-0.08-82.8-33.12-106.8-49.84V104h-80v712h80V429.76c16 10 30.88 20.96 42.4 29.12 28.16 20 105.28 20.4 173.36 20.64 25.84 0 50.24 0 66.8 1.6a556.24 556.24 0 0 1 99.76 17.12l19.68 5.76zM619.92 661.76l-12.88-1.52v72.88l10 1.36c107.76 14.48 146.72 42.64 146.72 58.16 0 27.44-100.32 65.6-263.52 65.6s-263.36-38.24-263.36-65.6c0-14.96 38.88-42.64 142.64-57.44l11.52-1.36V660.8l-14.64 1.6c-158.88 18.56-262.16 69.76-262.16 130.32 0 86.16 196.24 137.6 386.16 137.6s386.64-51.44 386.64-137.6c0-61.52-104.88-112.72-267.12-130.96z" /></svg>