<?xml version="1.0" standalone="no"?><!DOCTYPE svg PUBLIC "-//W3C//DTD SVG 1.1//EN" "http://www.w3.org/Graphics/SVG/1.1/DTD/svg11.dtd"><svg class="icon" width="16px" height="16.00px" viewBox="0 0 1024 1024" version="1.1" xmlns="http://www.w3.org/2000/svg"><path fill="#ffffff" d="M344.314 587.252c-33.329 0-60.346 26.926-60.346 60.145 0 33.217 27.017 60.145 60.346 60.145 33.327 0 60.349-26.927 60.349-60.145 0-33.219-27.022-60.145-60.349-60.145z m160.926 0c-33.328 0-60.346 26.926-60.346 60.145 0 33.217 27.017 60.145 60.346 60.145 33.329 0 60.351-26.927 60.351-60.145 0-33.219-27.022-60.145-60.351-60.145z m433.109-368.809l-66.646-112.37H155.001l-66.643 112.37c-45.779 77.198-22.318 175.108 51.528 224.918v361.252c0 57.029 47.635 103.414 106.205 103.414h534.593c58.565 0 106.219-46.386 106.219-103.414V443.299c33.91-22.856 58.177-56.363 68.956-95.69 12.048-43.93 5.836-89.797-17.51-129.166z m-111.062 586.17c0 25.021-20.904 45.362-46.604 45.362H246.09c-25.687 0-46.59-20.342-46.59-45.362v-335.47c64.207 14.576 132.895-7.543 175.34-58.398 32.298 42.229 83.604 68.303 139.815 68.303 55.177 0 106.057-25.487 138.521-66.729 22.865 26.814 53.602 46.079 88.901 55.364 28.368 7.447 57.481 7.863 85.211 1.521v335.409z m70.976-471.984c-7.932 28.924-26.909 53.058-53.429 67.977-26.533 14.914-57.539 18.84-87.23 11.032-29.722-7.812-54.55-26.371-69.924-52.297l-43.11-72.681-21.529 59.456c-16.223 44.803-59.775 74.883-108.386 74.883-49.665 0-93.534-30.976-109.149-77.074l-20.858-61.563-45.631 76.98c-31.773 53.6-102.231 72.092-157.148 41.265-54.873-30.858-73.65-99.549-41.876-153.147l49.415-83.336h647.883l49.414 83.336c15.403 25.961 19.505 56.208 11.558 85.169zM666.168 587.252c-33.329 0-60.346 26.926-60.346 60.145 0 33.217 27.017 60.145 60.346 60.145 33.324 0 60.346-26.927 60.346-60.145 0-33.219-27.022-60.145-60.346-60.145z" /></svg>