<?xml version="1.0" standalone="no"?><!DOCTYPE svg PUBLIC "-//W3C//DTD SVG 1.1//EN" "http://www.w3.org/Graphics/SVG/1.1/DTD/svg11.dtd"><svg class="icon" width="16px" height="16.00px" viewBox="0 0 1024 1024" version="1.1" xmlns="http://www.w3.org/2000/svg"><path fill="#ffffff" d="M739 770.2c0 9.5-7.7 17.2-17.2 17.2H308.6c-9.5 0-17.2-7.7-17.2-17.2V184.7c0-9.5 7.7-17.2 17.2-17.2h413.2c9.5 0 17.2 7.7 17.2 17.2v585.5zM515.2 917.5c-24.3 0-44-19.7-44-44s19.7-44 44-44 44 19.7 44 44-19.7 44-44 44zM480.8 98.7h68.9c9.5 0 17.2 7.7 17.2 17.2s-7.7 17.2-17.2 17.2h-68.9c-9.5 0-17.2-7.7-17.2-17.2-0.1-9.5 7.6-17.2 17.2-17.2z m223.8-34.5H325.8c-57.1 0-103.3 46.3-103.3 103.3v688.7c0 57 46.2 103.3 103.3 103.3h378.8c57.1 0 103.3-46.3 103.3-103.3V167.5c0-57-46.2-103.3-103.3-103.3z" /></svg>