<?xml version="1.0" standalone="no"?><!DOCTYPE svg PUBLIC "-//W3C//DTD SVG 1.1//EN" "http://www.w3.org/Graphics/SVG/1.1/DTD/svg11.dtd"><svg class="icon" width="16px" height="11.43px" viewBox="0 0 1433 1024" version="1.1" xmlns="http://www.w3.org/2000/svg"><path fill="#ffffff" d="M1067.855872 388.199424c7.650304-11.472896 5.098496-26.77248-5.098496-35.69664-11.47392-8.92416-26.773504-6.3744-35.697664 5.09952-1.27488 1.27488-142.78656 168.285184-311.072768 168.285184-163.185664 0-311.072768-168.285184-312.348672-169.560064-8.92416-10.19904-25.496576-11.472896-35.69664-2.54976-10.19904 8.92416-11.47392 25.4976-2.54976 35.69664 2.54976 3.82464 33.14688 38.2464 81.59232 76.493824l-66.043904 66.543616c-10.19904 10.200064-8.92416 26.773504 1.27488 35.697664 2.54976 5.098496 8.92416 7.64928 15.29856 7.64928s12.7488-2.54976 17.84832-7.64928l71.1424-71.64416c33.14688 22.94784 72.66816 44.6208 116.015104 59.91936l-27.79648 90.517504c-3.82464 14.022656 3.82464 28.04736 17.847296 31.872h7.64928c11.47392 0 21.673984-7.650304 24.22272-19.1232l27.79648-90.517504c20.39808 3.823616 42.072064 6.3744 63.745024 6.3744 21.673984 0 43.346944-2.54976 63.744-6.3744l27.797504 89.2416c2.548736 11.47392 14.022656 19.1232 24.221696 19.1232 2.54976 0 5.09952 0 6.375424-1.27488 14.02368-3.825664 21.67296-17.84832 17.849344-31.872l-27.79648-89.242624c43.34592-15.297536 82.8672-36.970496 116.01408-59.91936l69.86752 70.370304c5.098496 5.09952 11.472896 7.650304 17.84832 7.650304 6.3744 0 12.747776-2.54976 17.84832-7.650304 10.200064-10.19904 10.200064-25.496576 1.27488-35.695616L984.9856 463.418368c52.272128-38.2464 82.870272-75.218944 82.870272-75.218944z" /></svg>