<?xml version="1.0" standalone="no"?><!DOCTYPE svg PUBLIC "-//W3C//DTD SVG 1.1//EN" "http://www.w3.org/Graphics/SVG/1.1/DTD/svg11.dtd"><svg class="icon" width="16px" height="16.00px" viewBox="0 0 1024 1024" version="1.1" xmlns="http://www.w3.org/2000/svg"><path fill="#ffffff" d="M736.474 307.512l-33.102-15.993c-54.112-23.606-117.38-39.089-190.276-39.089-289.823 0-443.49 274.845-443.49 274.845s83.23 122.533 230.4 194.037l33.965 15.064c52.84 21.236 112.792 35.194 179.125 35.194 277.585 0 443.504-244.295 443.504-244.295s-69.207-139.537-220.126-219.763z m-223.379 423.02c-53.874 0-103.844-10.274-149-26.255l-35.055-13.901c-137.856-60.632-222.476-168.554-222.476-168.554S259.504 287.02 513.095 287.02c61.917 0 116.874 12.464 164.802 31.642l33.87 15.174c137.768 68.5 207.874 187.986 207.874 187.986s-163.663 208.71-406.546 208.71z"  /><path fill="#ffffff" d="M521.67 356.375c-85.958 0-155.624 69.665-155.624 155.624 0 85.954 69.667 155.624 155.625 155.624 85.963 0 155.619-69.671 155.619-155.624 0.001-85.958-69.656-155.624-155.62-155.624z"  /></svg>