<?xml version="1.0" standalone="no"?><!DOCTYPE svg PUBLIC "-//W3C//DTD SVG 1.1//EN" "http://www.w3.org/Graphics/SVG/1.1/DTD/svg11.dtd"><svg class="icon" width="16px" height="16.00px" viewBox="0 0 1024 1024" version="1.1" xmlns="http://www.w3.org/2000/svg"><path fill="#ffffff" d="M888 130.4c-8.8 0-17.6 0.8-26.4 0.8C635.2 131.2 536 30.4 535.2 29.6l-22.4-24-22.4 24c-0.8 0.8-98.4 101.6-326.4 101.6-8.8 0-17.6 0-26.4-0.8l-32-0.8v457.6c0 120 40.8 294.4 396 428l11.2 4 11.2-4c355.2-133.6 396.8-308.8 396.8-428V129.6l-32.8 0.8zM476.8 704.8L272 517.6l54.4-45.6 108.8 83.2s150.4-160.8 295.2-236l20.8 24c0.8 0-180.8 155.2-274.4 361.6z" /></svg>