<?xml version="1.0" standalone="no"?><!DOCTYPE svg PUBLIC "-//W3C//DTD SVG 1.1//EN" "http://www.w3.org/Graphics/SVG/1.1/DTD/svg11.dtd"><svg class="icon" width="16px" height="9.63px" viewBox="0 0 1702 1024" version="1.1" xmlns="http://www.w3.org/2000/svg"><path fill="#ffffff" d="M1595.205091 432.097299H689.453048a122.669569 122.669569 0 0 0-105.145345 50.069211 241.333601 241.333601 0 0 0-38.052601 68.594821 880.717437 880.717437 0 0 0-39.053986 155.214557c-9.012458 69.596205-9.51315 140.694485-12.01661 211.292074a34.547756 34.547756 0 0 0 33.546371 40.556061h114.658496a318.94088 318.94088 0 0 1 16.022148-76.605894 155.715249 155.715249 0 0 1 50.069211-59.582362 164.727707 164.727707 0 0 1 72.600358-20.528377 107.648806 107.648806 0 0 1 78.10797 29.540835 141.69587 141.69587 0 0 1 46.564367 126.675106h353.488636a150.207636 150.207636 0 0 1 29.540835-109.150882 123.170261 123.170261 0 0 1 100.138424-47.565751c81.612815 2.503461 121.167493 50.069212 130.179951 156.215941H1652.283992a39.053985 39.053985 0 0 0 42.55883-41.557446v-50.069212-335.463719c-1.001384-68.59482-32.544988-97.634963-99.637731-97.634963z m-748.034026 212.293458a400.553695 400.553695 0 0 0-169.233936 93.629426c-25.535298 20.528377-50.069212 41.056754-77.106586 61.084439a83.615584 83.615584 0 0 1-22.030454 11.515918c-13.518687 5.507613-21.529761 0-20.528376-15.020763a637.881759 637.881759 0 0 1 42.55883-226.81353 218.802456 218.802456 0 0 1 38.553293-59.08167 62.586515 62.586515 0 0 1 39.053985-21.529761c55.576825-2.503461 111.15365 0 168.232552 0z m259.85921-3.504845h-219.303148V486.67274h219.303148z m260.359902 0h-220.304533V487.173432h220.304533z m257.856441 0H1406.944854V487.674124h185.756776c34.047064 0 46.564367 12.016611 50.069212 46.564367s0 61.084438 0 92.12735c-0.500692 9.51315-4.005537 16.52284-17.524224 16.022147zM777.074168 835.154454a92.12735 92.12735 0 0 0-93.629426 94.130119 94.63081 94.63081 0 0 0 94.130119 94.63081 100.138424 100.138424 0 0 0 94.63081-95.131503 94.63081 94.63081 0 0 0-95.131503-93.629426zM1393.426167 835.154454a92.12735 92.12735 0 0 0-97.134271 92.628042 94.130118 94.130118 0 0 0 90.124581 96.132887 96.132887 96.132887 0 0 0 100.138424-93.629426 94.130118 94.130118 0 0 0-93.128734-95.131503zM329.956106 150.207636V42.55883h1366.889485V0H51.571288v150.207636H0v802.108774h400.553695V350.484483h1301.799509V150.207636H329.956106z" /></svg>